<?xml version="1.0" standalone="no"?>
<!DOCTYPE svg PUBLIC "-//W3C//DTD SVG 20010904//EN"
 "http://www.w3.org/TR/2001/REC-SVG-20010904/DTD/svg10.dtd">
<svg version="1.0" xmlns="http://www.w3.org/2000/svg"
 width="183.375684pt" height="377.918035pt" viewBox="0 0 183.375684 377.918035"
 preserveAspectRatio="xMidYMid meet">
<metadata>
Created by potrace 1.12, written by Peter Selinger 2001-2015
</metadata>
<g transform="translate(-33.124316,407.110154) scale(0.100000,-0.100000)"
fill="#000000" stroke="none">
<path d="M1025 4046 c-320 -83 -567 -322 -667 -648 l-23 -73 -3 -1125 c-2
-995 -1 -1134 13 -1205 66 -331 305 -600 625 -703 179 -57 381 -57 560 0 292
94 512 320 607 625 l28 88 0 1155 0 1155 -23 78 c-27 93 -88 220 -147 302 -85
119 -235 240 -373 302 -171 76 -415 96 -597 49z m455 -156 c248 -84 428 -265
511 -515 l24 -70 3 -767 c1 -423 0 -768 -3 -768 -13 0 -75 37 -162 95 -121 83
-181 105 -287 105 -95 0 -110 -4 -266 -75 -170 -77 -259 -94 -408 -76 -114 14
-201 41 -320 97 l-93 45 3 672 3 672 24 70 c83 251 270 438 511 514 94 29 101
30 255 26 112 -2 153 -7 205 -25z m197 -2094 c29 -14 76 -42 105 -64 70 -52
161 -100 204 -108 33 -6 34 -7 34 -55 0 -28 -5 -49 -10 -49 -18 0 -70 30 -165
93 -123 83 -170 100 -275 100 -95 1 -124 -7 -256 -69 -145 -67 -178 -76 -304
-82 -167 -6 -320 31 -475 116 -47 25 -50 30 -53 71 -3 33 0 42 10 38 7 -3 49
-21 93 -40 131 -56 250 -80 395 -81 146 0 232 20 370 86 124 59 149 67 215 67
43 1 75 -6 112 -23z m-32 -244 c28 -10 99 -50 158 -90 59 -39 132 -79 162 -88
l55 -18 0 -49 c0 -45 -1 -48 -22 -42 -13 4 -66 35 -118 69 -139 92 -144 95
-207 111 -118 31 -197 18 -363 -59 -63 -30 -148 -62 -188 -71 -165 -40 -423 8
-599 112 -39 23 -43 28 -43 64 0 21 2 39 4 39 2 0 35 -13 74 -30 147 -62 236
-82 394 -87 136 -5 153 -4 237 21 50 14 124 42 163 63 86 43 171 72 213 72 17
0 53 -8 80 -17z m4 -257 c23 -8 81 -41 129 -74 90 -62 185 -111 214 -111 9 0
19 -4 23 -9 10 -17 -7 -91 -20 -91 -7 0 -62 32 -122 72 -148 98 -197 117 -301
118 -92 0 -160 -19 -271 -75 -146 -73 -272 -95 -421 -75 -102 14 -239 58 -332
107 l-68 35 0 44 0 44 37 -19 c67 -33 210 -80 300 -97 64 -12 119 -15 203 -11
132 6 196 23 346 93 142 67 202 78 283 49z m17 -264 c23 -10 77 -43 121 -73
43 -30 98 -63 121 -74 43 -20 49 -32 32 -65 -15 -27 -30 -24 -91 21 -76 58
-146 89 -221 101 -95 15 -169 -1 -308 -65 -151 -70 -213 -86 -338 -86 -145 0
-242 22 -385 88 -74 34 -78 37 -91 81 -7 25 -10 47 -5 49 4 2 25 -6 46 -16
126 -64 341 -108 483 -98 105 7 181 26 285 73 179 79 189 83 250 83 37 0 76
-8 101 -19z m-32 -245 c47 -14 164 -84 187 -112 9 -11 8 -18 -5 -33 -17 -19
-19 -19 -81 10 -75 36 -175 47 -255 30 -30 -6 -107 -36 -171 -66 -64 -30 -145
-61 -180 -70 -76 -18 -197 -19 -286 -4 -59 10 -68 16 -129 76 -36 35 -64 66
-62 68 2 2 37 -5 78 -17 52 -14 118 -22 216 -25 170 -6 252 11 414 87 156 73
192 80 274 56z m-5 -252 c17 -4 31 -10 31 -14 0 -11 -125 -70 -194 -92 -71
-22 -290 -37 -246 -17 121 57 250 113 275 119 39 10 94 12 134 4z"/>
<path d="M1103 3731 c-74 -35 -132 -92 -170 -163 -25 -48 -28 -62 -28 -158 0
-96 3 -110 28 -158 38 -73 97 -128 173 -164 l64 -30 0 -69 0 -69 -114 0 c-125
0 -149 -9 -162 -62 -5 -22 0 -33 24 -58 30 -30 31 -30 141 -30 l111 0 0 -286
0 -287 -37 6 c-91 15 -220 108 -282 205 -40 63 -59 118 -70 209 -11 87 -31
116 -80 116 -51 0 -71 -27 -71 -96 0 -164 89 -344 227 -457 187 -155 460 -185
673 -74 70 37 149 98 197 154 81 93 143 257 143 375 0 71 -19 98 -71 98 -49 0
-69 -29 -80 -116 -11 -91 -30 -146 -70 -209 -62 -96 -192 -190 -285 -205 l-34
-6 0 287 0 286 95 0 c52 0 105 5 119 11 51 23 55 103 7 128 -11 6 -65 11 -120
11 l-101 0 0 75 c0 61 3 75 15 75 29 0 115 50 155 90 22 22 52 63 67 92 25 48
28 62 28 158 0 100 -1 108 -34 168 -39 71 -79 110 -154 149 -43 22 -68 27
-147 30 -89 4 -99 2 -157 -26z m259 -150 c50 -35 80 -84 86 -141 7 -77 -5
-117 -49 -165 -49 -53 -92 -69 -169 -63 -127 9 -201 117 -176 253 8 42 67 112
111 132 48 21 155 13 197 -16z"/>
</g>
</svg>
