<?xml version="1.0" encoding="UTF-8" standalone="no"?>
<svg
   xmlns:dc="http://purl.org/dc/elements/1.1/"
   xmlns:cc="http://creativecommons.org/ns#"
   xmlns:rdf="http://www.w3.org/1999/02/22-rdf-syntax-ns#"
   xmlns:svg="http://www.w3.org/2000/svg"
   xmlns="http://www.w3.org/2000/svg"
   viewBox="0 0 389.70667 495.39999"
   height="495.39999"
   width="389.70667"
   xml:space="preserve"
   id="svg2"
   version="1.1"><metadata
     id="metadata8"><rdf:RDF><cc:Work
         rdf:about=""><dc:format>image/svg+xml</dc:format><dc:type
           rdf:resource="http://purl.org/dc/dcmitype/StillImage" /></cc:Work></rdf:RDF></metadata><defs
     id="defs6" /><g
     transform="matrix(1.3333333,0,0,-1.3333333,0,495.4)"
     id="g10"><g
       transform="scale(0.1)"
       id="g12"><path
         id="path14"
         style="fill:#231f20;fill-opacity:1;fill-rule:evenodd;stroke:black;stroke-width:15"
         d="m 1319.57,2946.8 c 0,0 18.13,-1.25 25.63,-25.63 7.5,-24.37 31.87,-43.75 51.25,-35.62 19.37,8.12 18.66,38.78 -6.88,60.62 -51.87,44.38 -70,0.63 -70,0.63" /><path
         id="path16"
         style="fill:#231f20;fill-opacity:1;fill-rule:evenodd;stroke:black;stroke-width:15"
         d="m 1300.2,2949.92 c 15.62,-6.87 31.87,-24.37 31.87,-36.25 0,-11.87 -21.87,-11.87 -31.25,-5 -9.37,6.88 -12.5,17.5 -18.75,23.13 -6.25,5.62 2.5,25 18.13,18.12" /><path
         id="path18"
         style="fill:#231f20;fill-opacity:1;fill-rule:evenodd;stroke:black;stroke-width:15"
         d="m 2232.48,2395.13 0.94,-110.76 c 0,0 42.61,-0.95 47.35,-0.95 4.72,0 4.25,-9.47 31.71,-9.47 27.46,0 50.18,11.84 55.86,42.13 5.68,30.3 20.36,58.23 20.36,71.48 0,13.26 -35.51,2.84 -46.87,-3.79 -11.37,-6.63 -23.67,-2.84 -27.46,5.68 -3.78,8.52 -15.15,11.37 -15.15,0 0,-11.36 12.79,-62.95 -21.29,-64.85 5.06,32.38 -10.08,55.89 -45.45,70.53" /><path
         id="path20"
         style="fill:#231f20;fill-opacity:1;fill-rule:evenodd;stroke:black;stroke-width:15"
         d="m 1715.98,2423.36 c 0,0 48.83,-25.23 45.86,-94.84 -2.97,-69.61 -35.47,-88.91 -57.73,-82.97 33.73,52.74 37.69,112.01 11.87,177.81" /><path
         id="path22"
         style="fill:#231f20;fill-opacity:1;fill-rule:evenodd;stroke:black;stroke-width:15"
         d="m 541.066,2444.14 c -4.457,0 1.485,-57.89 1.485,-57.89 0,0 -28.055,-1.63 -32.508,-11.87 -4.453,-10.24 -19.297,0 -19.297,0 0,0 -14.691,97.81 -47.344,120.07 0,0 -19.297,-59.37 -7.422,-103.75 11.875,-44.37 41.415,-66.64 62.188,-68.12 20.781,-1.49 62.031,33.52 72.578,65.16 19.297,57.88 -25.226,56.4 -29.68,56.4" /><path
         id="path24"
         style="fill:#231f20;fill-opacity:1;fill-rule:evenodd;stroke:black;stroke-width:15"
         d="m 1535.2,1275.55 c -0.74,-23.77 -1.25,-532.503 -1.25,-532.503 0,0 -10,-2.5 -12.5,8.75 -2.5,11.25 -23.75,35 -16.25,86.25 7.5,51.25 7.5,66.25 13.75,83.75 6.25,17.5 -5,158.753 -7.5,207.503 -2.5,48.75 -1.25,163.75 -1.25,175 0,3.75 26.25,11.25 25,-28.75" /><path
         id="path26"
         style="fill:#231f20;fill-opacity:1;fill-rule:evenodd;stroke:black;stroke-width:15"
         d="m 1531.12,598.211 c 2.04,-7.488 10.2,-14.969 10.2,-27.215 0,-12.254 8.85,-22.754 6.13,-42.871 -2.72,-20.117 -7.49,-29.648 -7.49,-44.621 0,-14.969 3.4,-43.25 -11.57,-43.934 -14.97,-0.672 -7.48,47.637 -8.16,77.274 -0.68,29.652 -3.4,89.914 0.68,90.597 4.09,0.684 8.17,-1.746 10.21,-9.23" /><path
         id="path28"
         style="fill:#231f20;fill-opacity:1;fill-rule:evenodd;stroke:black;stroke-width:15"
         d="m 1405.92,314.141 c 13.29,-11.414 55.42,-61.571 58.94,-131.036 3.51,-69.472 -29.84,-93.1753 -63.33,-92.2925 -16.67,0.4375 27.34,7.8984 29.97,66.8355 2.64,58.934 -23.82,123.133 -36.11,142.45 -12.29,19.308 -2.76,25.449 10.53,14.043" /><path
         id="path30"
         style="fill:#231f20;fill-opacity:1;fill-rule:evenodd;stroke:black;stroke-width:15"
         d="m 1487.68,90.8125 c 10.66,-0.8828 45.76,2.7617 45.76,52.7925 0,50.028 -14.78,69.473 -27.21,70.352 -12.41,0.867 -15.04,-11.543 -15.04,-38.75 0,-27.211 7.02,-51.918 -3.51,-62.453 -10.54,-10.527 -10.66,-21.0626 0,-21.9415" /><path
         id="path32"
         style="fill:#231f20;fill-opacity:1;fill-rule:evenodd;stroke:black;stroke-width:15"
         d="m 1572.07,158.527 c 0,10.536 -7.78,51.914 8.9,51.914 16.68,0 30.73,-11.543 30.73,-37.871 0,-26.328 -6.02,-72.9802 -35.99,-72.9802 -29.97,0 -20.32,13.0352 -14.18,21.0662 6.15,8.024 10.54,27.34 10.54,37.871" /><path
         id="path34"
         style="fill:#231f20;fill-opacity:1;fill-rule:evenodd;stroke:black;stroke-width:15"
         d="m 26.4805,1531.25 c 0,33.75 13.8437,44.55 23.75,53.75 35,32.5 51.2185,159.3 114.9685,203.05 44.594,30.6 82.5,32.5 72.5,-52.5 -10,-85 41.27,-264.26 87.5,-357.5 147.5,-297.5 270,-330 360,-365 90,-35.003 288.84,-93.82 288.84,-93.82 -133.016,-122.609 -302.144,-142.218 -507.383,-58.8 0,-21.7 20.332,-49.055 52.528,-90.282 C 620.941,639.832 774.094,553.465 834.844,509.754 1050.86,354.328 1252.7,341.797 1252.7,341.797 l 3.75,1801.253 c -118.75,41.25 -116.25,62.5 -116.25,62.5 -43.56,-42.33 -169.813,-60.25 -378.751,-53.75 l -110,91.25 c 0,0 -130,-17.5 -203.75,21.25 -84.269,44.28 -103.75,132.5 -85,232.5 18.75,100 121.25,91.25 256.25,100 135,8.75 216.25,56.25 306.25,61.25 90.001,5 150.001,-46.25 180.001,-60 30,-13.75 136.94,35.71 136.94,35.71 0,0 -1.68,117.04 -8.41,207.15 -2.25,30.05 -16.21,60.21 -32.51,86.49 -139.89,69.37 -236.021,208.8 -236.021,370.65 0,231.74 197.061,417.5 437.501,417.5 240.44,0 437.5,-185.76 437.5,-417.5 0,-133.19 -65.09,-251.19 -166.09,-327.46 -38.34,-44.61 -82.48,-90.09 -82.48,-90.09 v -251.79 c 83.37,-71.58 200.41,-32.85 302.3,-22.75 101.89,10.11 179.39,-1.68 228.21,-45.46 48.83,-43.79 143.17,-44.64 208.01,-54.75 64.85,-10.1 111.99,-38.72 111.99,-63.16 0,-24.43 6.74,-86.73 3.37,-133.88 -3.37,-47.15 0,-101.89 -165.05,-104.43 -165.05,-2.55 -106.94,-53.89 -253.47,-75.78 -146.53,-21.89 -357.04,45.47 -373.06,47.15 -16.02,1.68 -42.1,-35.36 -42.1,-56.43 l 1.69,-1725.462 c 170.1,-71.582 397.84,80.742 520.43,175.539 281.25,217.5 357.5,378.75 357.5,378.75 0,0 -30,-21.25 -157.5,-52.5 -127.5,-31.25 -241.25,8.75 -261.25,15 -20,6.25 -27.25,9.551 -16.25,22.5 42.5,50 116.07,75.083 161.25,106.253 213.75,147.5 295,341.25 352.5,476.25 57.5,135 30,256.25 45,297.5 15,41.25 8.75,61.25 21.25,60 23.63,-2.37 102.42,-27.85 146.25,-92.5 150,-221.25 140,-459.99 140,-557.5 0,-162.5 -80,-365.003 -116.25,-465.003 -36.25,-100 -82.5,-88.75 -82.5,-88.75 0,0 -16.25,150 -16.25,183.75 0,33.75 -6.25,97.5 -20,88.75 -13.75,-8.75 -29.71,-37.59 -53.75,-112.5 -53.75,-167.5 -140.67,-260.606 -216.25,-331.25 -287.5,-268.75 -583.75,-348.75 -633.75,-356.25 -50,-7.5 -66.25,-8.75 -91.25,-51.2501 -25,-42.5 -61.04,-96.57424 -201.25,-90.000025 C 1251.45,11.7969 1231.98,111.113 1231.98,111.113 976.797,159.16 842.922,225.352 715.199,301.797 c -342.5,205 -476.769,548.605 -476.769,548.605 -35,-30 -18.231,-267.355 -18.231,-267.355 -96.25,75 -138.7498,160 -184.9998,323.75 -46.25,163.753 -37.46873,459.453 -26.24998,521.253 11.22268,61.79 17.53128,69.45 17.53128,103.2 z M 1171.96,3002.75 c 15.52,2.41 16.2,20.14 6.19,27.64 -13.46,10.11 -69.89,85.06 -76.63,100.21 -6.73,15.15 3.37,80 6.74,66.53 3.37,-13.47 31.99,-69.9 52.2,-101.89 20.2,-32 24.43,-19.38 24.43,8.42 0,27.8 -51.37,123.78 -54.74,220.62 -3.37,96.83 103.58,219.79 265.26,224.84 161.68,5.06 255.15,-100.21 286.32,-188.62 31.16,-88.42 -5.05,-144.85 -25.26,-181.89 -20.2,-37.05 -16.01,-64.85 -14.33,-88.42 1.68,-23.58 11.79,-12.65 19.39,5.05 7.59,17.69 43.78,85.05 57.24,103.57 13.48,18.52 31.18,18.52 13.48,-37.9 -17.7,-56.43 -65.67,-57.25 -69.04,-108.62 -0.78,-11.88 3.35,-16.65 9.86,-17.5 72.38,66.94 117.13,160.41 117.13,263.26 0,201.81 -172.31,367.5 -387.5,367.5 -215.2,0 -387.5,-165.69 -387.5,-367.5 0,-120.51 61.44,-228.14 156.76,-295.3 z M 701.762,535.859 c 8.937,-9.257 149.703,-93.027 212.187,-129.062 203.751,-117.5 396.251,-111.25 396.251,-111.25 42.03,-61.063 40.78,-119.402 -3.75,-175 -348.751,96.25 -475.001,171.914 -538.751,200.664 -63.75,28.75 -156.199,69.277 -287.5,226.836 -287.5,345 -338.66,767.953 -338.66,767.953 -8.019,-96.59 21.856,-228.34 89.617,-395.187 -51.297,-43.125 -52.75,-227.325 -52.75,-227.325 -174.85522,338.102 -185.64819,804.802 0,1011.302 72.895,-459.49 305.422,-725.63 697.563,-798.403 -217.563,-153.586 -521.582,1.172 -609.547,238.403 0,0 -47.16,-108.93 435.34,-608.931 z M 1714.68,180.352 c 656,150.214 993.4,584.179 1012.19,1301.858 0,0 37.08,-76.66 5.83,-227.91 -31.25,-151.25 -38.75,-193.75 -26.25,-235 12.5,-41.253 55,-185.003 53.75,-228.753 0,0 86.25,91.25 111.25,341.253 20.19,201.88 0,566.25 -210,695 0,0 0,-220 -107.5,-458.75 -45.96,-102.09 -257.5,-366.25 -428.75,-443.753 249.8,-17.082 410.23,61.258 481.25,235.003 0,0 -33.75,-225.003 -246.25,-463.753 -88.15,-99.035 -372.5,-346.25 -666.25,-366.25 0,0 -12.5,-17.5 0,-27.5 12.5,-10 17.67,-32.754 17.67,-66.086 0,-29.578 3.06,-55.359 3.06,-55.359 z M 1487.05,2131.82 c 0,0 -152.5,14.99 -158.12,-51.89 -5.63,-66.89 -16.86,-1403.102 -20.61,-1544.364 -3.75,-141.261 6.92,-184.355 35.03,-225.011 28.1,-40.653 83.74,-121.219 16.86,-173.114 0,0 9.94,-29.402 -33.16,-53.7691 0,0 15.94,-2.1485 27.02,-3.1524 11.07,-1.0078 26.16,-35.2265 123.27,-29.1914 97.11,6.0352 190.68,24.1602 194.71,114.2189 4.03,90.07 -38.22,192.695 -101.62,234.973 l -21.48,1736.28 c 0,0 -26.25,0 -26.25,-21.25 0,-21.25 5,-642.5 5,-671.25 0,-28.75 -13.75,-50 -15,-17.5 -1.25,32.5 -7.5,65 -8.75,136.25 -1.25,71.25 -16.9,568.77 -16.9,568.77 z M 612.309,2509.3 c 0,-10.39 2.964,-60.86 -11.875,-121.56 -14.844,-60.71 -77.032,-103.6 -90.391,-103.6 -13.359,0 -94.844,30.87 -99.297,93.21 -4.453,62.33 17.813,174.84 108.203,186.71 39.586,5.2 93.36,-44.38 93.36,-54.76 z m 32.507,25.08 c 0,0 43.039,-32.36 37.102,-94.7 -5.938,-62.33 -34.137,-120.22 -46.012,-140.85 -11.875,-20.63 -32.504,-26.72 -32.504,-8.9 0,17.81 7.274,38.59 25.082,56.4 17.809,17.81 23.746,62.33 23.746,96.32 0,33.99 -8.902,20.64 -10.382,38.44 -1.489,17.82 2.968,53.29 2.968,53.29 z m 71.09,20.78 h 66.645 c 19.297,0 31.164,-16.33 31.164,-16.33 0,0 2.969,-36.95 7.422,-48.83 4.453,-11.87 -1.485,-35.47 5.937,-50.32 7.422,-14.84 -4.453,-29.68 -10.39,-20.77 -5.938,8.9 -2.969,29.68 -14.836,25.23 -11.875,-4.46 -5.942,-43.19 -7.422,-69.76 -1.485,-26.57 -7.426,-59.22 0,-59.22 7.422,0 5.933,5.93 14.836,5.93 8.906,0 2.968,-20.92 -2.969,-35.62 -5.934,-14.69 -26.715,-36.95 -26.715,-47.34 0,-10.39 -16.176,-7.42 -19.144,1.48 -2.969,8.91 -16.329,39.93 -8.907,59.22 7.422,19.3 11.875,60.71 11.875,88.91 0,28.2 -28.203,46.01 -28.203,46.01 0,0 -2.969,-41.56 -5.937,-53.43 -2.969,-11.88 -13.356,-47.35 -13.356,-62.19 0,-14.84 5.942,-56.25 5.942,-63.68 0,-7.42 -23.606,-1.48 -29.539,10.39 -5.938,11.88 -13.36,10.39 -31.172,10.39 0,0 -2.969,17.66 8.906,22.12 11.875,4.45 32.508,65.3 29.535,123.04 -2.969,57.74 -7.422,106.57 -2.969,136.25 4.457,29.69 19.297,-1.48 19.297,-1.48 z m 120.074,46.01 c 111.02,-69.76 112.504,-364.53 -37.105,-395.7 78.738,85.98 91.105,217.89 37.105,395.7 z m 54.766,-10.39 c 0,0 68.129,41.41 148.134,-11.87 80,-53.29 102.11,-199.93 71.09,-320 0,0 -54.77,-56.26 -152.575,-66.64 -97.817,-10.39 -82.969,26.56 -69.614,39.92 13.356,13.36 59.922,41.43 57.739,149.61 -2.969,146.64 -54.774,208.98 -54.774,208.98 z m 385.164,-371.95 c 0,0 48.98,44.38 51.95,162.97 2.96,118.59 -69.76,222.19 -207.5,177.81 0,0 31.17,-63.53 31.17,-115.47 0,-51.95 1.48,-132.1 1.48,-157.18 0,-25.08 20.63,-48.83 35.47,-48.83 l 5.95,171.87 c 0,0 41.55,-19.14 35.61,-62.19 -5.93,-43.04 -19.29,-109.68 -19.29,-121.56 0,-11.87 22.26,2.97 22.26,13.36 0,10.39 0,19.3 7.42,19.3 7.43,0 4.46,65.3 8.91,102.26 4.45,36.96 10.24,42.89 19.14,42.89 8.91,0 1.49,-23.74 8.91,-23.74 7.43,0 -2.69,-59.7 -5.94,-68.13 -7.42,-19.3 4.46,-93.36 4.46,-93.36 z m 2.97,355.62 c 95.34,-97.53 106.23,-227.89 32.65,-391.09 152.58,59.22 130.32,370.32 -32.65,391.09 z m 354.13,-287.49 c 22.46,82.38 13.36,219.37 -71.09,283.04 -84.46,63.67 -195.63,10.39 -195.63,10.39 96,-139.2 103.42,-274.52 22.27,-405.94 0,0 193.99,-72.57 244.45,112.51 z m 88.91,256.33 c 45.86,1.48 136.4,-10.4 164.45,-154.07 28.05,-143.67 -62.19,-191.02 -85.94,-191.02 0,0 65.16,128.83 22.12,192.5 -7,10.35 -23.6,10.25 -20.63,-11.87 2.97,-22.11 -17.81,-151.24 -23.75,-162.97 -5.94,-11.72 -22.41,-7.56 -32.66,-10.39 -10.23,-2.82 -54.91,19.3 -84.44,16.33 0,0 59.36,88.9 41.55,189.68 -17.81,100.79 -32.8,105.24 -41.55,105.24 -8.76,0 14.98,25.08 60.85,26.57 z m 131.79,1.48 c 115.63,-32.5 154.07,-282.89 35.63,-356.96 54.66,102.62 42.79,221.61 -35.63,356.96 z m 257.82,-23.6 c 0,0 51.79,-133.28 53.28,-168.9 1.48,-35.63 15.66,-137.45 -77.03,-164.46 -81.49,-23.75 -136.25,-13.36 -136.25,-13.36 64.06,150.94 53.18,279.83 -32.66,386.64 0,0 32.07,19.64 69.61,8.91 51.95,-14.84 123.05,-48.83 123.05,-48.83 z m 75.03,-40.35 c 9.47,-0.95 99.88,-8.05 165.68,-26.51 65.8,-18.47 59.17,-91.36 50.65,-134.44 -8.52,-43.08 -68.16,-68.64 -88.52,-74.32 -20.35,-5.68 -86.15,-6.63 -97.99,-0.95 -11.83,5.69 -14.67,11.36 -23.19,11.36 -8.52,0 11.36,5.21 11.36,43.08 0,37.87 0,88.52 -6.62,98.93 -6.64,10.42 -6.64,43.08 -8.53,55.39 -1.9,12.3 -12.31,28.4 -2.84,27.46 z m -890.11,142.23 c 0,0 168.75,3.75 183.75,2.5 15,-1.25 21.25,-13.75 40,-13.75 18.75,0 22.5,78.75 22.5,112.5 0,33.75 2.5,168.75 2.5,177.5 0,8.75 -33.75,-2.5 -33.75,-28.75 0,-26.25 -1.25,-91.25 2.5,-97.5 3.75,-6.25 10,-48.75 3.75,-71.25 -6.25,-22.5 -28.75,-40 -30,-27.5 -1.25,12.5 0,172.5 0,186.25 0,13.75 -26.25,26.25 -42.5,28.75 -16.25,2.5 -26.25,12.5 -25,43.75 1.25,31.25 28.75,36.25 43.75,33.75 15,-2.5 -12.5,-30 -15,-43.75 -2.5,-13.75 13.75,-31.25 35,-5 21.25,26.25 27.5,55 28.75,70 1.25,15 15,27.5 15,27.5 0,0 15,-37.5 22.5,-15 7.5,22.5 -1.25,72.5 1.25,93.75 2.5,21.25 25,1.25 25,-31.25 0,-32.5 11.25,-50 22.5,-51.25 11.25,-1.25 10,128.75 -96.25,192.5 -47.46,28.48 -166.25,35 -232.5,-35 -66.25,-70 -63.75,-185 -36.25,-233.75 27.5,-48.75 62.5,-77.5 56.25,-130 -6.25,-52.5 -15.17,-112.23 -6.25,-132.5 13.75,-31.25 12.5,-52.5 12.5,-52.5 z m -91.25,547.5 c 0,0 -70,101.25 -6.25,232.5 27.73,57.09 83.75,113.75 200,112.5 116.25,-1.25 230,-96.25 242.5,-183.75 12.5,-87.5 -6.25,-158.75 -28.75,-135 -22.5,23.75 -123.76,76.43 -231.25,68.75 -140,-10 -176.25,-95 -176.25,-95" /></g></g></svg>