<?xml version="1.0" encoding="UTF-8" standalone="no"?>
<svg
   xmlns:dc="http://purl.org/dc/elements/1.1/"
   xmlns:cc="http://creativecommons.org/ns#"
   xmlns:rdf="http://www.w3.org/1999/02/22-rdf-syntax-ns#"
   xmlns:svg="http://www.w3.org/2000/svg"
   xmlns="http://www.w3.org/2000/svg"
   viewBox="0 0 533.33331 400"
   height="400"
   width="533.33331"
   xml:space="preserve"
   id="svg2"
   version="1.1"><metadata
     id="metadata8"><rdf:RDF><cc:Work
         rdf:about=""><dc:format>image/svg+xml</dc:format><dc:type
           rdf:resource="http://purl.org/dc/dcmitype/StillImage" /></cc:Work></rdf:RDF></metadata><defs
     id="defs6" /><g
     transform="matrix(1.3333333,0,0,-1.3333333,0,400)"
     id="g10"><g
       transform="scale(0.1)"
       id="g12">
        



<path id="path16"
         style="fill:#343435;fill-opacity:1;fill-rule:nonzero;stroke:#343435;stroke-width:10"
         d="m 1807.8,2642.7 c 65.8,52.6 155.6,68.8 237.1,51.5 76.6,-17.6 144.9,-68.9 182.1,-138.3 39,-69.7 43.7,-156.6 16.4,-231.2 -22.6,-61 -68.1,-111.6 -123.5,-144.9 -0.2,-31 -0.1,-62 2.4,-92.9 118.9,-5.5 237.6,-12.8 356.59,-17.3 23.41,40.4 69.81,76.7 118.71,57.7 84.1,-29.8 109.7,-139 80.8,-216.1 -17.1,-51.7 -67.9,-98.3 -125.4,-88 -38.2,5.3 -58.3,40.3 -81.5,66.5 -114.9,-5.6 -229.5,-16.4 -344.3,-23.1 -0.3,-37.9 1.3,-75.9 3.2,-113.8 28.21,-13.7 55.9,-31.2 72,-59.1 19.6,-36.3 62.4,-54.1 76.1,-94.4 15.2,-48.2 60.8,-85.1 56.2,-139.3 -3,-47.2 19.1,-95.6 -1.09,-141.2 -22.81,-43.3 -21.31,-98.7 -59.72,-133 -43.79,-35 -70.89,-90.4 -128.49,-106.3 2,-56.6 4,-117.996 39.3,-165.398 31.8,-46.004 91.8,-62.5 145.3,-59.102 85.3,5.496 167.3,41.199 232.9,95.496 -17.1,17.402 -35.3,33.906 -51.1,52.604 -21.2,23.29 -14.9,65.7 13.3,80.79 109.4,67.81 220.5,132.91 330.2,200.41 20.7,11.9 47.3,31 71.09,15.5 20.31,-12.9 15.81,-39.4 14.21,-59.7 -14.8,-130.3 -27.7,-260.698 -42.9,-390.901 -1.5,-32.297 -36.8,-57.195 -67.7,-47.004 -29.4,7.61 -57.6,19.504 -86.3,29.407 C 2618.8,669.695 2451.5,545.398 2273.89,446.504 2205.4,406.902 2137,366.602 2065.2,333.098 c -27.2,-11.993 -55.2,-25 -85.4,-25.903 -44.7,-1.797 -86.9,16.504 -125.4,37.207 -61.5,34.493 -123.7,67.7 -183.5,105.102 -15.6,-45.703 -31.5,-92.309 -58.6,-132.602 -6.2,-11.707 -19.2,-15.507 -30.1,-21.004 -24.8,37.707 -45.7,78.106 -75.1,112.707 -22.2,25 -27.5,59.293 -24.4,91.59 0.6,28.106 10.4,65.508 -19.3,82.703 -95.5,71.504 -184.3,152.903 -256.8,248.098 -35.5,-10.293 -69.6,-30.098 -107,-30.398 -29.3,2.898 -47.8,30.906 -47.7,58.699 -13.4,124.199 -26.7,248.403 -40.4,372.603 -0.9,22.4 -7.6,49.7 11,66.99 18.7,13.51 42.6,4.31 60,-6.59 112,-68.2 224.4,-135.8 336.6,-203.8 23.6,-12.7 41.2,-40.4 30.7,-67.5 -12.7,-29.605 -40.6,-48.598 -61.9,-71.801 37.9,-30.996 81.1,-54.695 126.5,-72.695 19.6,36.797 24.2,83.098 58.8,110.398 24.2,19.208 50.4,35.698 72.7,57.398 26,25.2 65.4,25 93.4,47 19.6,14.2 42.4,22.5 65.2,30.09 6.7,189.91 12.4,380.01 17.4,569.91 -21.6,24 -51.2,36.8 -80.5,48.4 -34.8,13.9 -53.4,49.7 -86.9,65.7 -32,16.4 -53,46.2 -70.5,76.4 -50.2,3 -100.3,6.5 -150.4,10.3 -22.1,-32 -50.9,-66.8 -93.4,-67.4 -55,-3.1 -96.5,44.7 -110.9,93.5 -23.6,73.8 -2.6,176.3 75.4,208.3 51,20.8 101.3,-16 126.6,-58.5 27.3,1.6 54.7,2.6 82,4.8 -0.3,41 -9.8,85.5 13,122.6 16.2,25.6 26.7,53.9 37.6,82 15.1,39.1 59.2,54 79.5,89.3 13.1,21.5 33.8,36.4 55.1,49 0.6,87 39.2,174.1 109.3,227" />
 

<path id="path18"
         style="fill:#ffffff;fill-opacity:1;fill-rule:nonzero;stroke:#343435;stroke-width:10"
         d="m 1821.5,2568 c 51.7,69.9 142,112.8 228.8,92.3 122.4,-22.6 205.9,-164.1 164.1,-281.9 -18.6,-49.2 -51.1,-100.2 -103.4,-117.7 33.1,56.3 86.2,108.8 79.4,179.9 0.4,124 -135.1,213.5 -251,189.5 -45.3,-6.9 -82.6,-35.1 -117.9,-62.1" />
<path id="path20"
         style="fill:#ffffff;fill-opacity:1;fill-rule:nonzero;stroke:#343435;stroke-width:10"
         d="m 1838.2,2468.9 c 24.2,51.4 73.7,92.8 132.2,94.5 79.8,6.4 156.4,-63.6 155.1,-144.1 2.8,-37.7 -16,-71.7 -36.4,-101.7 -16.2,27.2 -22.8,62.8 -52.99,78.9 -36.11,19.1 -65.21,53 -107.01,59.4 -30.4,3.9 -60.8,7 -90.9,13" />
<path id="path22"
         style="fill:#ffffff;fill-opacity:1;fill-rule:nonzero;stroke:#343435;stroke-width:10"
         d="m 1821.6,2440.9 c 29.7,0 62.8,-0.5 86,-22.3 24.7,-18.2 32.4,-49 38.7,-77.4 -10.2,-1.4 -30.4,-4.2 -40.6,-5.6 -17.7,42.5 -50.5,75.1 -84.1,105.3" />
<path id="path24"
         style="fill:#ffffff;fill-opacity:1;fill-rule:nonzero;stroke:#343435;stroke-width:10"
         d="m 1921.8,2442.1 c 38.4,-15.8 76.5,-38.6 93.2,-78.9 l -15,-1.7 c 7.4,-2 22.4,-6 29.9,-8 l -4.2,32.8 c 16.2,-15.7 27.8,-35.3 33.6,-57.3 -34.6,7.6 -69.7,13 -105.3,11.4 0.8,36.7 -13.5,70.8 -32.2,101.7" />
<path id="path26"
         style="fill:#ffffff;fill-opacity:1;fill-rule:nonzero;stroke:#343435;stroke-width:10"
         d="m 1756.1,2413.2 c 60.8,25.7 104.7,-37.6 138.9,-77.5 -13.2,-4.8 -26.4,-9.6 -39.6,-14.4 -28.3,35.5 -64,63.8 -99.3,91.9" />
<path id="path28"
         style="fill:#ffffff;fill-opacity:1;fill-rule:nonzero;stroke:#343435;stroke-width:10"
         d="m 1661.3,2356 c 18,19.2 40,43.3 69.5,36 43.9,-13.1 79.5,-43.6 113.3,-73.1 -11.2,-8.8 -22.4,-17.6 -33.6,-26.3 -43.4,33.6 -92.6,62.8 -149.2,63.4" />
<path id="path30"
         style="fill:#ffffff;fill-opacity:1;fill-rule:nonzero;stroke:#343435;stroke-width:10"
         d="m 1572.4,2254.7 c 20.5,36.4 52.4,71.9 96.9,74.5 50.2,8.4 93,-24.6 132,-51 -12.5,-6.3 -23.1,-22.6 -38.6,-19.3 -62.7,10.3 -128.9,16.5 -190.3,-4.2" />
<path id="path32"
         style="fill:#ffffff;fill-opacity:1;fill-rule:nonzero;stroke:#343435;stroke-width:10"
         d="m 1994.9,2295.6 c 22.1,37.4 82.4,17.3 98.3,-15.9 4.6,-63.6 0.41,-127.5 1.9,-191.3 -43.6,1.7 -87.4,2.6 -130.3,11 2.1,65.6 -4.7,137.6 30.1,196.2" />
<path id="path34"
         style="fill:#ffffff;fill-opacity:1;fill-rule:nonzero;stroke:#343435;stroke-width:10"
         d="m 1857.8,2097.4 c 5.4,58.6 -3.1,119.2 17,175.7 -8.4,-58.2 -6.7,-117 -7.4,-175.6 l -9.6,-0.1" />
<path id="path36"
         style="fill:#ffffff;fill-opacity:1;fill-rule:nonzero;stroke:#343435;stroke-width:10"
         d="m 1581.3,2228.1 c 54.7,28.2 119.1,23.9 177.5,11.5 -15.2,-14.1 -28.6,-30.9 -47.2,-40.8 -32,-10.6 -67.7,-6.6 -98.7,-21 -31,-14.3 -57.4,-36.4 -85.1,-56 2.4,40.2 15.6,85.7 53.5,106.3" />
<path id="path38"
         style="fill:#ffffff;fill-opacity:1;fill-rule:nonzero;stroke:#343435;stroke-width:10"
         d="m 1727.4,2175.1 c 19.3,15.6 36.1,33.9 50.7,54 17.3,-15.8 35.5,-30.6 54.3,-44.6 0.1,-32.2 0.1,-64.4 0.2,-96.6 -43.3,-2.6 -86.7,-5.6 -130,-5.4 -4.3,33.4 17.5,61.3 24.8,92.6" />
<path id="path40"
         style="fill:#ffffff;fill-opacity:1;fill-rule:nonzero;stroke:#343435;stroke-width:10"
         d="m 1541.9,2091.1 c 31.9,57.3 99.4,76.4 160.6,80.5 -17.4,-68.9 -97.3,-93.8 -160.6,-80.5" />
<path id="path42"
         style="fill:#ffffff;fill-opacity:1;fill-rule:nonzero;stroke:#343435;stroke-width:10"
         d="m 1322.5,2097.2 c 31.2,17.4 57.7,-12.1 79.4,-30.7 -29.8,-3.5 -60.4,-1.4 -89.4,-9.9 -19.3,-10.3 -26.8,-32.6 -38.4,-49.8 3.2,34.8 11.5,76.3 48.4,90.4" />
<path id="path44"
         style="fill:#ffffff;fill-opacity:1;fill-rule:nonzero;stroke:#343435;stroke-width:10"
         d="m 2515.8,2089.8 c 29.5,12.3 66.1,21.7 93.2,-1.3 52.5,-41.9 61.1,-120.8 27.6,-177.3 -1.6,44.9 -4,93.8 -33.3,130.5 -20.2,29 -56,37.7 -87.5,48.1" />
<path id="path46"
         style="fill:#ffffff;fill-opacity:1;fill-rule:nonzero;stroke:#343435;stroke-width:10"
         d="m 1896,1977.3 c 23.1,29.8 49.4,56.8 74.4,85.1 26,-28.7 51.7,-57.7 77.1,-87 -25.2,-29.7 -51,-58.8 -77.4,-87.4 -24.2,30 -55.4,55.4 -74.1,89.3" />
<path id="path48"
         style="fill:#ffffff;fill-opacity:1;fill-rule:nonzero;stroke:#343435;stroke-width:10"
         d="m 2021.6,2065.6 c 162.8,-8.8 325.8,-13.7 488.6,-22 32.1,-0.7 61.1,-17.4 77.9,-44.8 -26.6,-24.4 -64.6,-17.1 -97.4,-20.4 -137.9,-4.6 -275.7,-16.7 -413.6,-17.2 16.1,9.1 33.8,15.4 52.6,15.3 68.8,3.4 137.5,7.8 206.41,9.4 -85.51,12.5 -172.41,11.2 -258.41,19.4 -18.2,20.6 -37.1,40.5 -56.1,60.3" />
<path id="path50"
         style="fill:#ffffff;fill-opacity:1;fill-rule:nonzero;stroke:#343435;stroke-width:10"
         d="m 1389.5,2026.1 c 174.2,11.6 348.8,16.8 523.1,26.7 -13.9,-15.8 -27.8,-31.6 -41.6,-47.5 -148.3,-9.7 -297.9,-3.7 -445.5,-21.8 142.4,3.3 284.7,-6.1 427.1,-9 l -0.1,-17.3 c -170,4.3 -340.1,6.8 -510,14.5 3,26 17.4,53.7 47,54.4" />
<path id="path52"
         style="fill:#ffffff;fill-opacity:1;fill-rule:nonzero;stroke:#343435;stroke-width:10"
         d="m 1307.1,1923.1 c 23.5,-13.6 47.4,-26.5 72.7,-36.7 -7.5,-1.5 -22.5,-4.3 -29.9,-5.7 -16.7,11.6 -30.3,26.6 -42.8,42.4" />
<path id="path54"
         style="fill:#ffffff;fill-opacity:1;fill-rule:nonzero;stroke:#343435;stroke-width:10"
         d="m 2493.4,1888.2 c 34.3,5.1 66.8,17.2 95.49,36.9 -15.09,-22.8 -28.69,-52.4 -58.39,-58.4 -15.4,-0.3 -25.1,14.1 -37.1,21.5" />
<path id="path56"
         style="fill:#ffffff;fill-opacity:1;fill-rule:nonzero;stroke:#343435;stroke-width:10"
         d="m 1627.4,1862.8 c 15.4,1 30.8,1.6 46.2,2 -1.3,-13.4 -2.9,-26.7 -4.6,-40.1 -14.5,12 -28.6,24.5 -41.6,38.1" />
<path id="path58"
         style="fill:#ffffff;fill-opacity:1;fill-rule:nonzero;stroke:#343435;stroke-width:10"
         d="m 1696.1,1862.7 c 21.1,-1.4 42.2,-2.7 63.3,-3.8 0.1,-34.5 1.7,-69 5.3,-103.3 -21.4,13.8 -46.4,25.6 -59.5,48.6 -10,17.8 -7,39.1 -9.1,58.5" />
<path id="path60"
         style="fill:#ffffff;fill-opacity:1;fill-rule:nonzero;stroke:#343435;stroke-width:10"
         d="m 1781.5,1856.7 c 18,-1.1 36,-2.2 54,-3.4 11.9,-51.4 23.2,-103.1 43.3,-152.1 -30.2,11.4 -66.9,21.5 -82.1,53.1 -11.4,32.9 -10.8,68.3 -15.2,102.4" />
<path id="path62"
         style="fill:#ffffff;fill-opacity:1;fill-rule:nonzero;stroke:#343435;stroke-width:10"
         d="m 1863.7,1853.3 c 36.8,1.9 54.9,-31.2 71.2,-58.3 22.6,-38.6 26.5,-84.2 31.6,-127.7 -16.6,9.5 -36.3,15.5 -49.3,30.2 -31.8,46 -43.5,101.8 -53.5,155.8" />
<path id="path64"
         style="fill:#ffffff;fill-opacity:1;fill-rule:nonzero;stroke:#343435;stroke-width:10"
         d="m 1931.6,1842.6 c 39.8,-12.5 83.9,-28.2 106.5,-65.9 24.8,-50.5 7.3,-108 2.8,-161 -16.7,14.4 -37.8,26.5 -46.4,48 -10.1,32.8 -9.1,68.1 -19.9,100.8 -9.8,28.3 -27.4,52.9 -43,78.1" />
<path id="path66"
         style="fill:#ffffff;fill-opacity:1;fill-rule:nonzero;stroke:#343435;stroke-width:10"
         d="m 2028.4,1816.4 c 22.5,11.3 46,20.6 70.3,27.2 1.7,-20.9 3.4,-41.7 5,-62.6 -24.6,12.8 -49.9,24.2 -75.3,35.4" />
<path id="path68"
         style="fill:#ffffff;fill-opacity:1;fill-rule:nonzero;stroke:#343435;stroke-width:10"
         d="m 2061.11,1785.3 c 22.78,-17.7 48.09,-36 58.09,-64.5 22.8,-56.2 4,-117.1 -8.9,-173.3 -21.2,22.3 -46.69,47.9 -40.7,81.8 4.5,52.2 2.1,104.6 -8.49,156" />
<path id="path70"
         style="fill:#ffffff;fill-opacity:1;fill-rule:nonzero;stroke:#343435;stroke-width:10"
         d="m 2145.4,1725.2 c 32.9,-26 60.9,-62.7 62.8,-106.1 1.3,-49.1 -19.8,-95.8 -44.8,-136.9 -19.51,-2.5 -25.1,32.6 -28.4,48.1 10.8,64.4 21.2,129.6 10.4,194.9" />
<path id="path72"
         style="fill:#ffffff;fill-opacity:1;fill-rule:nonzero;stroke:#343435;stroke-width:10"
         d="m 1850.1,1429.7 c 0.4,75.4 -1.7,151.3 7,226.3 10.1,-17.1 11.2,-36.8 10.7,-56 -0.4,-166.8 -1.4,-333.61 2.3,-500.3 -0.3,-56.2 1.4,-112.598 -5.8,-168.399 -4.1,-34.106 -28.1,-61.606 -54.5,-81.399 -4.9,-2.304 -35.1,-14.406 -21.8,-1.406 45.2,36.602 55.4,97.5 56,152.304 1.9,143 2.8,286 6.1,428.9" />
<path id="path74"
         style="fill:#ffffff;fill-opacity:1;fill-rule:nonzero;stroke:#343435;stroke-width:10"
         d="m 2229.3,1634.8 c 27.2,-31 51.4,-70.8 43.4,-113.9 -8.4,-54.2 -51.7,-93.3 -96.59,-119.9 -0.51,21.8 -5,45.5 7.78,65 28.41,51.7 44.31,109.8 45.41,168.8" />
<path id="path76"
         style="fill:#ffffff;fill-opacity:1;fill-rule:nonzero;stroke:#343435;stroke-width:10"
         d="m 1994.8,919.695 c 0.9,216.415 -1,432.705 1,649.005 38.2,-19.5 55.2,-60.1 83.2,-90.2 18.2,-21.4 26.4,-50.2 26.1,-78 0.6,-70.1 -1.8,-140.3 2,-210.3 3.7,-101.2 -9.8,-205.298 20.4,-303.598 12.4,-41.797 39.4,-84.598 83.8,-96.797 66.5,-15.91 134.7,5.691 195.5,32.199 63.5,28.594 126,62.691 175.6,112.398 15.2,-27.5 30.3,-55.105 47,-81.804 -125.2,-126.602 -292.1,-203.496 -464.1,-242.793 -42.2,61.699 -104,107.597 -143.5,170.996 -22.7,42.402 -27.5,91.601 -27,138.894" />
<path id="path78"
         style="fill:#ffffff;fill-opacity:1;fill-rule:nonzero;stroke:#343435;stroke-width:10"
         d="m 2297.7,1532.9 c 16.3,-40.1 29.9,-88 7,-128.4 -29.4,-49.7 -87.9,-70.8 -141.8,-80.7 5.1,64.5 79,75.9 105.4,127.2 15.59,24.9 21.5,54 29.4,81.9" />
<path id="path80"
         style="fill:#ffffff;fill-opacity:1;fill-rule:nonzero;stroke:#343435;stroke-width:10"
         d="m 2137.4,1461.11 c 2.6,-2.81 7.8,-8.31 10.4,-11.11 0.3,-22.2 3.2,-44.2 7.6,-65.9 -4.2,-15.4 -8.1,-30.9 -11.7,-46.5 -5.3,41.01 -7.5,82.2 -6.3,123.51" />
<path id="path82"
         style="fill:#ffffff;fill-opacity:1;fill-rule:nonzero;stroke:#343435;stroke-width:10"
         d="m 2256.11,1332.9 c 28.29,17 50,42.3 71.09,67.3 -1.9,-43.81 -8.5,-93.3 -45.6,-122.1 -38.2,-32.6 -91.5,-27.1 -137.8,-21.9 -1.6,11.2 -3.2,22.41 -4.8,33.6 38.7,15.3 81.7,19.9 117.11,43.1" />
<path id="path84"
         style="fill:#ffffff;fill-opacity:1;fill-rule:nonzero;stroke:#343435;stroke-width:10"
         d="m 1046.4,1276.11 c 15.8,-2.22 32.5,-4.01 45.8,-13.91 87.7,-56 175.5,-111.9 263.5,-167.5 22.1,-14.3 45.9,-26.7 65,-45.1 -3.1,-17.3 -18.4,-28.6 -28.9,-41.6 -40.3,-40.695 -77.6,-88.801 -132.9,-109.602 -48.8,-18.894 -99.3,-33.796 -151,-42.097 -25.7,82.594 -27.2,170.599 -43.4,255.399 15.5,-59.3 23.3,-120.305 38.1,-179.696 5.7,-25.609 31.7,-41.406 57,-39.602 41.9,2.293 80.4,21.602 117.5,39.602 44,20.801 71.9,62.598 98.1,101.696 -66.6,-7.7 -135.4,-45.302 -201.8,-19.1 -44.2,30.4 -64.4,83.5 -87.8,129.8 -18.8,41.8 -39.5,84.6 -39.2,131.71" />
<path id="path86"
         style="fill:#ffffff;fill-opacity:1;fill-rule:nonzero;stroke:#343435;stroke-width:10"
         d="m 2845.8,1252.6 c 17.1,10.8 33.8,26.9 55.8,21.5 6,-36.4 -10.8,-70.21 -23.8,-102.99 -22.1,-52.11 -46,-103.91 -77.8,-150.81 -14.1,-20.2 -32.4,-41.804 -59,-43.198 -61.1,4.199 -109.4,48.098 -168.2,60.898 29.2,-47.504 70.9,-86.801 117.3,-117.402 42.9,-23.801 91.5,-35.598 139.4,-44.493 20.2,67.196 33.7,136.095 48.4,204.695 -1.79,-58 -13.4,-114.999 -20.6,-172.499 -3.6,-16.602 -3.3,-36.504 -17,-48.797 -23.2,-2.602 -45.7,6.695 -68,12 -50.3,15.691 -104.6,29.094 -143.69,66.797 -33.51,31.301 -66.01,63.899 -94.21,100.099 103.2,72.2 207.9,142.3 311.4,214.2" />
<path id="path88"
         style="fill:#ffffff;fill-opacity:1;fill-rule:nonzero;stroke:#343435;stroke-width:10"
         d="m 2142.4,1232.3 c 52.1,-13.6 106.6,-6.5 151.7,23.5 -13.7,-28 -29.2,-57.7 -58.1,-72.7 -27.8,-18.3 -62,-15.5 -93.2,-11.3 -0.2,20.2 -0.4,40.4 -0.4,60.5" />
<path id="path90"
         style="fill:#ffffff;fill-opacity:1;fill-rule:nonzero;stroke:#343435;stroke-width:10"
         d="m 2144.5,1144.4 c 19.6,-2.5 39.3,-4.8 59,-7.2 -19,-11.3 -38.1,-22.5 -57.6,-32.8 -0.5,13.4 -1,26.71 -1.4,40" />
<path id="path92"
         style="fill:#ffffff;fill-opacity:1;fill-rule:nonzero;stroke:#343435;stroke-width:10"
         d="m 1743.6,1072.8 c 14.3,6.09 28.4,14.8 44.4,14.8 15.8,-8.6 17.4,-28.5 24.7,-43.1 -23.1,9.2 -46.2,18.5 -69.1,28.3" />
<path id="path94"
         style="fill:#ffffff;fill-opacity:1;fill-rule:nonzero;stroke:#343435;stroke-width:10"
         d="m 1639.2,1017.5 c 24.2,16.9 49,38.2 80.3,37.5 33.8,-4.1 65.9,-20.6 90.5,-43.8 0.2,-19.899 -3.5,-39.696 -6.7,-59.298 -57.1,16.094 -105.2,54.298 -164.1,65.598" />
<path id="path96"
         style="fill:#ffffff;fill-opacity:1;fill-rule:nonzero;stroke:#343435;stroke-width:10"
         d="m 1542.4,908.398 c 19.3,39.903 49,86.407 97.9,89.407 54.3,-13.203 102.7,-43.11 149.5,-72.61 -41.3,-25 -87.2,-9.89 -130.6,-1.3 -39.8,9.406 -78.9,-5.094 -116.8,-15.497" />
<path id="path98"
         style="fill:#ffffff;fill-opacity:1;fill-rule:nonzero;stroke:#343435;stroke-width:10"
         d="m 1547.8,882.305 c 55.9,28.593 122.8,22.199 179.5,-0.91 -68,-39.493 -149,-45.797 -218.2,-83.192 7,29.695 10.5,66.199 38.7,84.102" />
<path id="path100"
         style="fill:#ffffff;fill-opacity:1;fill-rule:nonzero;stroke:#343435;stroke-width:10"
         d="m 1322.7,862.402 c 8.2,9.793 16.5,19.7 24.6,29.7 45.1,-38 95.8,-68.301 148,-95.5 -4,-19.805 -9.3,-39.407 -14.7,-58.907 -54.4,39.207 -107,81.106 -157.9,124.707" />
<path id="path102"
         style="fill:#ffffff;fill-opacity:1;fill-rule:nonzero;stroke:#343435;stroke-width:10"
         d="m 1529.8,780.496 c 47.7,21.008 98,36.508 149.6,44.504 -10,-20.398 -18.9,-42.996 -38.3,-56.504 -46.3,-34.492 -97.6,-61.594 -143.6,-96.594 -1,37.297 -1.9,84.797 32.3,108.594" />
<path id="path104"
         style="fill:#ffffff;fill-opacity:1;fill-rule:nonzero;stroke:#343435;stroke-width:10"
         d="m 1813.4,589.902 c 50.4,65 102.2,129.2 156.7,190.801 55.7,-60.605 106.8,-125.398 156.9,-190.605 -49.6,-52.598 -102,-102.696 -157.1,-149.602 -53.9,47.902 -106.6,97.402 -156.5,149.406" />
<path id="path106"
         style="fill:#ffffff;fill-opacity:1;fill-rule:nonzero;stroke:#343435;stroke-width:10"
         d="m 1799.9,705.703 c 35,6.602 64.1,28.399 93.7,46.797 -32.6,-39.297 -65.5,-78.398 -97.5,-118.203 -12.3,-14.102 -16.6,-32.5 -22,-49.895 -26,10.5 -52.3,20.598 -78.5,30.793 -4.1,33.504 -5.4,67.305 -3.3,101.004 35.3,-6.597 71.5,-17.5 107.6,-10.496" />
<path id="path108"
         style="fill:#ffffff;fill-opacity:1;fill-rule:nonzero;stroke:#343435;stroke-width:10"
         d="m 1518.7,660.598 c 46.2,31.199 95.2,58.297 144.3,84.898 -5.7,-31.891 -17.2,-64.297 -42.3,-86.094 -38.7,-34.097 -83.6,-60.507 -122,-95 -4.7,32.2 -12.5,75.403 20,96.196" />
<path id="path110"
         style="fill:#343435;fill-opacity:1;fill-rule:nonzero;stroke:#343435;stroke-width:10"
         d="m 1857.8,598.605 c 35.2,42.391 72.4,83.399 111.3,122.5 34.4,-37.21 70.1,-73.41 101.7,-113.109 -28.3,16.699 -55.1,35.703 -82.2,54.106 -44.1,-20.2 -86.7,-43.403 -130.8,-63.497" />
<path id="path112"
         style="fill:#ffffff;fill-opacity:1;fill-rule:nonzero;stroke:#343435;stroke-width:10"
         d="m 1516.2,543.801 c 38.8,41.902 88.5,72.195 138.5,98.894 -2.9,-28.398 -7.1,-58.691 -27.1,-80.793 -34.7,-41.804 -83.3,-69.402 -116.6,-112.703 -6.3,30.801 -18.5,67.996 5.2,94.602" />
<path id="path114"
         style="fill:#ffffff;fill-opacity:1;fill-rule:nonzero;stroke:#343435;stroke-width:10"
         d="m 1598.5,492.102 c 15,9.902 39.8,14.402 51.4,-2.903 -4.1,-58 -33.2,-109.504 -62.7,-158.094 -17.4,31.395 -43.9,61.297 -47.4,98.192 7.6,29.101 35.1,46.902 58.7,62.805" />
         
         
         
         </g></g></svg>