<?xml version="1.0" standalone="no"?>
<!DOCTYPE svg PUBLIC "-//W3C//DTD SVG 20010904//EN"
 "http://www.w3.org/TR/2001/REC-SVG-20010904/DTD/svg10.dtd">
<svg version="1.0" xmlns="http://www.w3.org/2000/svg"
 width="462.210356pt" height="511.851886pt" viewBox="0 0 462.210356 511.851886"
 preserveAspectRatio="xMidYMid meet">
<metadata>
Created by potrace 1.12, written by Peter Selinger 2001-2015
</metadata>
<g transform="translate(-25.111511,511.883540) scale(0.100000,-0.100000)"
fill="#000000" stroke="none">
<path d="M2421 5104 c-77 -16 -201 -73 -236 -108 -30 -31 -32 -65 -4 -100 28
-35 52 -33 145 13 156 78 300 81 449 10 265 -126 359 -465 197 -715 -111 -172
-331 -260 -525 -209 -173 45 -302 164 -357 330 -26 78 -29 220 -6 286 32 90
10 149 -54 149 -72 0 -105 -92 -105 -290 0 -121 3 -143 26 -207 53 -144 172
-285 299 -352 l60 -32 0 -195 0 -194 -185 0 -185 0 -54 44 c-138 113 -339 119
-479 15 -91 -67 -138 -145 -156 -258 -27 -169 58 -330 217 -408 71 -36 81 -38
166 -37 112 1 183 26 254 90 l50 44 186 0 186 0 0 -1050 0 -1050 -26 0 c-44 0
-223 50 -328 91 -407 161 -749 498 -913 899 l-43 105 55 11 c68 14 98 33 119
77 19 40 20 65 6 102 -20 52 -493 800 -526 833 -28 27 -41 32 -79 32 -57 0
-100 -21 -120 -60 -8 -16 -60 -240 -115 -499 -109 -516 -108 -510 -49 -567 26
-25 38 -29 87 -29 31 0 71 3 87 7 l31 7 34 -101 c74 -220 225 -486 382 -673
238 -284 513 -479 886 -629 251 -101 351 -166 526 -342 112 -112 163 -143 236
-144 72 0 135 37 225 131 159 166 297 260 506 342 238 94 395 179 562 306 145
110 187 152 187 189 0 42 -31 72 -72 72 -26 -1 -52 -16 -123 -76 -173 -145
-350 -248 -590 -344 -245 -97 -375 -181 -552 -358 -148 -146 -140 -146 -276
-9 -173 175 -313 268 -541 358 -320 126 -526 258 -742 473 -226 226 -384 485
-488 799 -56 170 -62 175 -172 154 -43 -8 -80 -14 -82 -12 -2 2 164 797 172
820 3 11 4 10 273 -420 l181 -290 -81 -16 c-84 -17 -117 -40 -117 -79 0 -42
65 -215 130 -345 176 -353 453 -628 810 -805 174 -87 445 -166 589 -172 41 -2
55 2 74 20 l22 23 0 1160 0 1161 -28 24 c-28 24 -32 24 -215 24 l-187 0 0 105
0 105 188 0 c104 0 197 4 207 10 33 18 40 66 40 279 l0 206 99 0 100 0 3 -228
c4 -292 -19 -267 242 -267 l191 0 0 -105 0 -105 -187 0 c-183 0 -187 0 -215
-24 l-28 -24 0 -250 c0 -232 1 -251 19 -271 25 -27 86 -29 109 -3 15 16 17 47
17 220 l0 202 186 0 186 0 50 -44 c71 -64 142 -89 254 -90 85 -1 95 1 166 37
159 78 244 239 217 408 -13 78 -30 120 -76 180 -133 174 -387 203 -559 63
l-54 -44 -185 0 -185 0 0 194 0 195 60 32 c117 62 233 193 287 324 53 127 57
322 10 455 -108 302 -432 483 -746 414z m-671 -1658 c147 -73 172 -283 47
-393 -139 -122 -358 -51 -396 129 -18 82 2 152 63 216 76 82 183 100 286 48z
m1840 4 c41 -21 92 -73 113 -115 53 -109 10 -247 -97 -310 -120 -70 -273 -25
-339 99 -33 63 -31 166 6 228 66 113 204 155 317 98z"/>
<path d="M2456 4740 c-195 -76 -240 -334 -85 -474 184 -165 470 -38 472 209 1
198 -202 337 -387 265z m171 -150 c45 -27 66 -64 66 -115 0 -104 -113 -169
-200 -115 -45 27 -66 64 -66 115 0 74 60 135 133 135 19 0 49 -9 67 -20z"/>
<path d="M4466 2998 c-27 -26 -478 -736 -525 -825 -16 -30 -14 -69 5 -110 21
-44 51 -63 119 -77 l55 -11 -43 -105 c-190 -466 -608 -831 -1100 -960 -62 -17
-124 -30 -139 -30 l-28 0 0 710 c0 697 0 710 -20 730 -25 25 -71 26 -101 1
l-24 -19 0 -771 0 -770 22 -23 c28 -28 80 -27 227 3 279 56 558 188 781 369
101 82 249 241 328 350 108 152 267 497 267 579 0 40 -33 62 -117 80 l-82 16
182 290 c100 160 202 322 226 360 24 39 45 66 47 60 8 -23 174 -818 172 -820
-2 -2 -39 4 -82 12 -75 14 -80 14 -105 -5 -17 -12 -32 -39 -44 -78 -76 -252
-201 -502 -338 -675 -52 -66 -30 -142 41 -142 41 0 60 19 153 158 94 140 199
349 247 493 l34 101 31 -7 c16 -4 56 -7 87 -7 49 0 61 4 87 29 38 37 51 81 41
137 -42 218 -193 906 -205 929 -20 39 -63 60 -120 60 -38 0 -51 -5 -79 -32z"/>
</g>
</svg>
