<?xml version="1.0" encoding="utf-8"?>
<svg viewBox="0 0 462.210356 511.851886" xmlns="http://www.w3.org/2000/svg">
  <path d="M 291.588 42.884 C 296.288 56.184 295.888 75.684 290.588 88.384 C 285.188 101.484 273.588 114.584 261.888 120.784 L 255.888 123.984 L 255.888 162.884 L 292.888 162.884 L 298.288 158.484 C 315.488 144.484 340.888 147.384 354.188 164.784 C 358.788 170.784 360.488 174.984 361.788 182.784 C 364.488 199.684 355.988 215.784 340.088 223.584 C 332.988 227.184 331.988 227.384 323.488 227.284 C 312.288 227.184 305.188 224.684 298.088 218.284 L 293.088 213.884 L 255.888 213.884 L 255.888 234.084 C 255.888 251.384 255.688 254.484 254.188 256.084 C 251.888 258.684 245.788 258.484 243.288 255.784 C 241.488 253.784 241.388 251.884 241.388 228.684 L 241.388 203.684 L 244.188 201.284 C 246.044 199.693 246.845 199.157 252.504 198.976 L 301.334 198.976 C 301.416 199.148 301.501 199.317 301.588 199.484 C 308.188 211.884 323.488 216.384 335.488 209.384 C 346.188 203.084 350.488 189.284 345.188 178.384 C 343.088 174.184 337.988 168.984 333.888 166.884 C 322.588 161.184 308.788 165.384 302.188 176.684 C 301.945 177.091 301.718 177.515 301.505 177.955 L 284.388 177.955 L 284.388 177.884 L 265.288 177.884 C 239.188 177.884 241.488 180.384 241.088 151.184 L 240.788 128.384 L 240.669 128.384 L 240.669 112.798 C 253.26 110.161 264.936 102.566 272.088 91.484 C 288.288 66.484 278.888 32.584 252.388 19.984 C 237.488 12.884 223.088 13.184 207.488 20.984 C 198.188 25.584 195.788 25.784 192.988 22.284 C 190.188 18.784 190.388 15.384 193.388 12.284 C 196.888 8.784 209.288 3.084 216.988 1.484 C 248.388 -5.416 280.788 12.684 291.588 42.884 Z M 220.888 128.384 L 220.888 148.984 C 220.888 170.284 220.188 175.084 216.888 176.884 C 215.888 177.484 206.588 177.884 196.188 177.884 L 176.014 177.884 L 176.016 177.955 L 160.271 177.955 C 158.168 173.491 154.675 169.661 149.888 167.284 C 139.588 162.084 128.888 163.884 121.288 172.084 C 115.188 178.484 113.188 185.484 114.988 193.684 C 118.788 211.684 140.688 218.784 154.588 206.584 C 157.087 204.385 158.987 201.785 160.309 198.976 L 209.272 198.976 C 214.931 199.157 215.732 199.693 217.588 201.284 L 220.388 203.684 L 220.388 435.784 L 218.188 438.084 C 216.288 439.884 214.888 440.284 210.788 440.084 C 196.388 439.484 169.288 431.584 151.888 422.884 C 116.188 405.184 88.488 377.684 70.888 342.384 C 64.388 329.384 57.888 312.084 57.888 307.884 C 57.888 303.984 61.188 301.684 69.588 299.984 L 77.688 298.384 L 59.588 269.384 C 32.688 226.384 32.588 226.284 32.288 227.384 C 31.488 229.684 14.888 309.184 15.088 309.384 C 15.288 309.584 18.988 308.984 23.288 308.184 C 34.288 306.084 34.888 306.584 40.488 323.584 C 50.888 354.984 66.688 380.884 89.288 403.484 C 110.888 424.984 131.488 438.184 163.488 450.784 C 186.288 459.784 200.288 469.084 217.588 486.584 C 231.188 500.284 230.388 500.284 245.188 485.684 C 262.888 467.984 275.888 459.584 300.388 449.884 C 324.388 440.284 342.088 429.984 359.388 415.484 C 366.488 409.484 369.088 407.984 371.688 407.884 C 375.788 407.884 378.888 410.884 378.888 415.084 C 378.888 418.784 374.688 422.984 360.188 433.984 C 343.488 446.684 327.788 455.184 303.988 464.584 C 283.088 472.784 269.288 482.184 253.388 498.784 C 244.388 508.184 238.088 511.884 230.888 511.884 C 223.588 511.784 218.488 508.684 207.288 497.484 C 189.788 479.884 179.788 473.384 154.688 463.284 C 117.388 448.284 89.888 428.784 66.088 400.384 C 50.388 381.684 35.288 355.084 27.888 333.084 L 24.488 322.984 L 21.388 323.684 C 19.788 324.084 15.788 324.384 12.688 324.384 C 7.788 324.384 6.588 323.984 3.988 321.484 C -1.912 315.784 -2.012 316.384 8.888 264.784 C 14.388 238.884 19.588 216.484 20.388 214.884 C 22.388 210.984 26.688 208.884 32.388 208.884 C 36.188 208.884 37.488 209.384 40.288 212.084 C 43.588 215.384 90.888 290.184 92.888 295.384 C 94.288 299.084 94.188 301.584 92.288 305.584 C 90.188 309.984 87.188 311.884 80.388 313.284 L 74.888 314.384 L 79.188 324.884 C 95.588 364.984 129.788 398.684 170.488 414.784 C 180.988 418.884 198.888 423.884 203.288 423.884 L 205.888 423.884 L 205.888 213.884 L 168.688 213.884 L 163.688 218.284 C 156.588 224.684 149.488 227.184 138.288 227.284 C 129.788 227.384 128.788 227.184 121.688 223.584 C 105.788 215.784 97.288 199.684 99.988 182.784 C 101.788 171.484 106.488 163.684 115.588 156.984 C 129.588 146.584 149.688 147.184 163.488 158.484 L 168.888 162.884 L 205.888 162.884 L 205.888 123.984 L 199.888 120.784 C 187.188 114.084 175.288 99.984 169.988 85.584 C 167.688 79.184 167.388 76.984 167.388 64.884 C 167.388 45.084 170.688 35.884 177.888 35.884 C 184.288 35.884 186.488 41.784 183.288 50.784 C 180.988 57.384 181.288 71.584 183.888 79.384 C 189.388 95.984 202.288 107.884 219.588 112.384 C 220.067 112.51 220.548 112.627 221.03 112.737 L 221.03 128.384 Z" fill="#000000" stroke="none"/>
  <path d="M 220.488 37.884 C 200.988 45.484 196.488 71.284 211.988 85.284 C 230.388 101.784 258.988 89.084 259.188 64.384 C 259.288 44.584 238.988 30.684 220.488 37.884 Z M 237.588 52.884 C 242.088 55.584 244.188 59.284 244.188 64.384 C 244.188 74.784 232.888 81.284 224.188 75.884 C 219.688 73.184 217.588 69.484 217.588 64.384 C 217.588 56.984 223.588 50.884 230.888 50.884 C 232.788 50.884 235.788 51.784 237.588 52.884 Z" fill="#000000" stroke="none"/>
  <path d="M 421.488 212.084 C 418.788 214.684 373.688 285.684 368.988 294.584 C 367.388 297.584 367.588 301.484 369.488 305.584 C 371.588 309.984 374.588 311.884 381.388 313.284 L 386.888 314.384 L 382.588 324.884 C 363.588 371.484 321.788 407.984 272.588 420.884 C 266.388 422.584 260.188 423.884 258.688 423.884 L 255.888 423.884 L 255.888 352.884 C 255.888 283.184 255.888 281.884 253.888 279.884 C 251.388 277.384 246.788 277.284 243.788 279.784 L 241.388 281.684 L 241.388 358.784 L 241.388 435.784 L 243.588 438.084 C 246.388 440.884 251.588 440.784 266.288 437.784 C 294.188 432.184 322.088 418.984 344.388 400.884 C 354.488 392.684 369.288 376.784 377.188 365.884 C 387.988 350.684 403.888 316.184 403.888 307.984 C 403.888 303.984 400.588 301.784 392.188 299.984 L 383.988 298.384 L 402.188 269.384 C 412.188 253.384 422.388 237.184 424.788 233.384 C 427.188 229.484 429.288 226.784 429.488 227.384 C 430.288 229.684 446.888 309.184 446.688 309.384 C 446.488 309.584 442.788 308.984 438.488 308.184 C 430.988 306.784 430.488 306.784 427.988 308.684 C 426.288 309.884 424.788 312.584 423.588 316.484 C 415.988 341.684 403.488 366.684 389.788 383.984 C 384.588 390.584 386.788 398.184 393.888 398.184 C 397.988 398.184 399.888 396.284 409.188 382.384 C 418.588 368.384 429.088 347.484 433.888 333.084 L 437.288 322.984 L 440.388 323.684 C 441.988 324.084 445.988 324.384 449.088 324.384 C 453.988 324.384 455.188 323.984 457.788 321.484 C 461.588 317.784 462.888 313.384 461.888 307.784 C 457.688 285.984 442.588 217.184 441.388 214.884 C 439.388 210.984 435.088 208.884 429.388 208.884 C 425.588 208.884 424.288 209.384 421.488 212.084 Z" fill="#000000" stroke="none"/>
</svg>